<?xml version="1.0" standalone="no"?>
<!DOCTYPE svg PUBLIC "-//W3C//DTD SVG 20010904//EN"
 "http://www.w3.org/TR/2001/REC-SVG-20010904/DTD/svg10.dtd">
<svg version="1.0" xmlns="http://www.w3.org/2000/svg"
 width="512.000000pt" height="512.000000pt" viewBox="0 0 512.000000 512.000000"
 preserveAspectRatio="xMidYMid meet">
<metadata>
Created by potrace 1.11, written by Peter Selinger 2001-2013
</metadata>
<g transform="translate(0.000000,512.000000) scale(0.100000,-0.100000)"
fill="#000000" stroke="none">
<path d="M2236 5104 c-628 -81 -1228 -407 -1633 -889 -318 -378 -528 -857
-588 -1345 -20 -161 -20 -459 0 -620 144 -1167 1068 -2091 2235 -2235 161 -20
459 -20 620 0 1167 144 2091 1068 2235 2235 20 161 20 459 0 620 -144 1167
-1068 2091 -2235 2235 -154 19 -482 18 -634 -1z m614 -309 c858 -116 1579
-709 1848 -1520 80 -239 112 -444 112 -715 0 -316 -46 -557 -157 -835 -304
-759 -990 -1291 -1803 -1401 -212 -28 -544 -15 -760 31 -768 161 -1421 744
-1668 1490 -80 239 -112 444 -112 715 0 316 46 557 157 835 303 755 985 1288
1793 1400 130 18 459 18 590 0z"/>
<path d="M1291 3148 c-81 -42 -108 -111 -77 -193 28 -72 57 -86 209 -101 162
-16 280 -49 406 -114 220 -114 367 -266 477 -493 56 -117 82 -221 94 -370 7
-93 13 -125 31 -153 23 -38 85 -73 128 -74 41 0 109 39 132 77 20 33 21 43 16
166 -19 463 -304 903 -724 1120 -168 87 -352 137 -558 152 -82 6 -94 4 -134
-17z"/>
<path d="M3620 3159 c-163 -17 -370 -83 -510 -161 -122 -68 -320 -228 -348
-279 -12 -22 -9 -32 32 -103 25 -43 57 -107 72 -142 15 -35 30 -64 35 -64 4 0
24 22 44 50 47 64 161 169 239 221 151 99 304 151 511 173 155 16 183 30 211
101 20 53 15 102 -16 145 -43 61 -113 76 -270 59z"/>
</g>
</svg>
