<svg width="48" height="48" fill="none" xmlns="http://www.w3.org/2000/svg"><path d="M24 32.5c-.8 0-1.4-.7-1.4-1.4a10 10 0 00-9.9-10c-.8 0-1.4-.6-1.4-1.3 0-.8.6-1.4 1.4-1.4 7 0 12.7 5.6 12.7 12.7 0 .7-.6 1.4-1.4 1.4zM36.7 19.8c0 .7-.6 1.4-1.4 1.4a9.9 9.9 0 00-8.1 4.2c-.4-1-.9-1.9-1.4-2.7 2.3-2.7 5.7-4.3 9.5-4.3.8 0 1.4.6 1.4 1.4z" fill="#1F2041" fill-opacity=".3"/><path d="M24 48a24 24 0 110-48 24 24 0 010 48zm0-45.2a21.2 21.2 0 100 42.4 21.2 21.2 0 000-42.4z" fill="#1F2041" fill-opacity=".3"/></svg>