<svg width="106" height="40" fill="none" xmlns="http://www.w3.org/2000/svg"><path d="M62.335 13.368c.2217 0 .4025.0758.5425.2275.1517.14.2275.3208.2275.5425 0 .21-.0758.3908-.2275.5425-.14.1517-.3208.2275-.5425.2275h-3.7625v10.5c0 .2217-.0758.4083-.2275.56-.14.14-.3208.21-.5425.21-.21 0-.3908-.07-.5425-.21-.1517-.1517-.2275-.3383-.2275-.56v-10.5H53.27c-.21 0-.3908-.0758-.5425-.2275S52.5 14.348 52.5 14.138c0-.2217.0758-.4025.2275-.5425.1517-.1517.3325-.2275.5425-.2275h9.065zM68.9076 13.368c.8867 0 1.7209.1692 2.5025.5075.7933.3383 1.4817.7992 2.065 1.3825.595.5833 1.0617 1.2717 1.4 2.065.3383.7817.5075 1.6158.5075 2.5025 0 1.0383-.2217 1.995-.665 2.87s-1.0441 1.61-1.8025 2.205c0 0-.0116.0117-.035.035-.56.42-1.1725.7525-1.8375.9975-.665.2333-1.3767.35-2.135.35-.8867 0-1.7208-.1692-2.5025-.5075-.7817-.3383-1.47-.7992-2.065-1.3825-.5833-.5833-1.0442-1.2658-1.3825-2.0475-.3383-.7817-.5075-1.6217-.5075-2.52 0-.98.1983-1.8842.595-2.7125.3967-.84.9392-1.5575 1.6275-2.1525l.07-.07c.0117 0 .0292-.0117.0525-.035.56-.4667 1.19-.8283 1.89-1.085.7-.2683 1.4408-.4025 2.2225-.4025zm0 11.375c.4433 0 .8634-.0525 1.26-.1575.4084-.1167.7933-.2742 1.155-.4725l-6.1425-7.4725c-.3733.4317-.665.9217-.875 1.47-.21.5367-.315 1.1083-.315 1.715 0 .6767.1284 1.3125.385 1.9075.2567.595.6067 1.12 1.05 1.575.455.4433.98.7933 1.575 1.05.595.2567 1.2308.385 1.9075.385zm3.6225-1.5925c.4083-.4433.7234-.945.945-1.505.2334-.5717.35-1.1783.35-1.82 0-.6767-.1283-1.3125-.385-1.9075-.2567-.595-.6125-1.1142-1.0675-1.5575-.4433-.455-.9625-.8108-1.5575-1.0675-.595-.2567-1.2308-.385-1.9075-.385-.4667 0-.9158.0642-1.3475.1925-.4317.1167-.8342.2917-1.2075.525l6.1775 7.525zM82.351 20.6305c-.2333 0-.4316-.0933-.595-.28l-4.4975-5.775c-.1283-.1633-.1808-.3442-.1575-.5425.0234-.21.1167-.3792.28-.5075.1634-.1283.3442-.175.5425-.14.21.0233.3792.1167.5075.28l3.92 5.005 3.8325-4.9175c.1284-.1633.2917-.2567.49-.28.21-.0233.3967.0292.56.1575.1634.1283.2567.2975.28.5075.0234.1983-.0291.3792-.1575.5425l-4.41 5.67c-.1516.1867-.35.28-.595.28zm4.9175 5.635c-.0466 0-.1225-.0058-.2275-.0175-.0933-.0117-.2041-.0408-.3325-.0875-.1283-.0583-.2683-.1342-.42-.2275-.14-.105-.28-.245-.42-.42l-3.5175-4.5325-3.8325 4.935c-.1283.1633-.2975.2567-.5075.28-.1983.0233-.3791-.0292-.5425-.1575-.1633-.1283-.2566-.2917-.28-.49-.0233-.21.0292-.3967.1575-.56l4.41-5.67c.14-.1867.3325-.28.5775-.28.2567 0 .4609.0933.6125.28l4.095 5.25c.0584.0817.1109.1342.1575.1575.0467.0233.0817.0408.105.0525.1984 0 .3617.07.49.21.14.1283.2159.2917.2275.49.0234.21-.035.3908-.175.5425-.14.1517-.315.2333-.525.245h-.0525zM91.7343 26.2655c-.2217 0-.4083-.0758-.56-.2275-.1517-.1517-.2275-.3383-.2275-.56V14.103c0-.21.0758-.3908.2275-.5425s.3383-.2275.56-.2275c.21 0 .3908.0758.5425.2275s.2275.3325.2275.5425v11.375c0 .2217-.0758.4083-.2275.56-.1517.1517-.3325.2275-.5425.2275zM104.938 26.2305c-.257 0-.455-.0992-.595-.2975l-7.2978-9.59v9.135c0 .21-.0759.3908-.2275.5425-.14.14-.315.21-.525.21-.1984 0-.3734-.07-.525-.21-.1517-.1517-.2275-.3325-.2275-.5425V14.1205c0-.1633.0466-.3092.14-.4375.0933-.1283.2216-.2158.385-.2625.1516-.0583.3033-.0642.455-.0175.1516.0467.28.1342.385.2625l7.2798 9.6075v-9.1525c0-.1983.07-.3733.21-.525.152-.1517.333-.2275.543-.2275.21 0 .385.0758.525.2275.151.1517.227.3267.227.525V25.478c0 .1633-.047.3092-.14.4375-.093.1283-.216.2217-.367.28-.117.0233-.199.035-.245.035z" fill="#1F2041"/><path d="M20.0003 27.0587c-.647 0-1.1764-.5295-1.1764-1.1765 0-4.5294-3.7059-8.2353-8.2353-8.2353-.64708 0-1.17649-.5294-1.17649-1.1765 0-.647.52941-1.1765 1.17649-1.1765 5.8529 0 10.5882 4.7353 10.5882 10.5883 0 .647-.5294 1.1765-1.1765 1.1765z" fill="url(#paint0_linear)"/><path d="M30.5884 16.4704c0 .6471-.5295 1.1765-1.1765 1.1765-2.7941 0-5.2941 1.4118-6.7647 3.5588-.3236-.8235-.7059-1.5882-1.1765-2.2941 1.9412-2.2353 4.7941-3.6177 7.9412-3.6177.647 0 1.1765.5295 1.1765 1.1765z" fill="url(#paint1_linear)"/><path d="M20 40C8.97059 40 0 31.0294 0 20 0 8.97059 8.97059 0 20 0c11.0294 0 20 8.97059 20 20 0 11.0294-8.9706 20-20 20zm0-37.64706C10.2647 2.35294 2.35294 10.2647 2.35294 20c0 9.7353 7.91176 17.6471 17.64706 17.6471 9.7353 0 17.6471-7.9118 17.6471-17.6471 0-9.7353-7.9118-17.64706-17.6471-17.64706z" fill="url(#paint2_linear)"/><defs><linearGradient id="paint0_linear" x1="15.2945" y1="15.2939" x2="15.2945" y2="27.0587" gradientUnits="userSpaceOnUse"><stop stop-color="#BC9CFF"/><stop offset="1" stop-color="#8BA4F9"/></linearGradient><linearGradient id="paint1_linear" x1="26.0295" y1="15.2939" x2="26.0295" y2="21.2057" gradientUnits="userSpaceOnUse"><stop stop-color="#6FCF97"/><stop offset="1" stop-color="#66D2EA"/></linearGradient><linearGradient id="paint2_linear" x1="20" y1="0" x2="20" y2="40" gradientUnits="userSpaceOnUse"><stop stop-color="#BC9CFF"/><stop offset="1" stop-color="#8BA4F9"/></linearGradient></defs></svg>